<svg id="Слой_1" data-name="Слой 1" xmlns="http://www.w3.org/2000/svg" xmlns:xlink="http://www.w3.org/1999/xlink" viewBox="0 0 60.53 20.65"><defs><mask id="mask" x="0" y="0" width="38.43" height="20.65" maskUnits="userSpaceOnUse"><g id="mask-6"><path id="path-5" fill="#fff" d="M0 0v20.64h38.43V0H0z"/></g></mask></defs><g mask="url(#mask)" id="Group-21"><path id="Fill-19" d="M34.4 12.28l-.52.62a4.48 4.48 0 0 1-6.78.39l-8.27-9.17-.7-.78-.06-.06A10.47 10.47 0 0 0 0 10.32a10.46 10.46 0 0 0 18.6 6.44l-4-4.52-.6.66a4.39 4.39 0 1 1-.34-5.65l.67.75 8.29 9.27v.05a10.44 10.44 0 0 0 7.59 3.25 10.5 10.5 0 0 0 8.13-3.86z" fill="#80ba27"/></g><path id="Fill-22" d="M26.13 8.37l.52-.63a4.48 4.48 0 0 1 6.78-.39l8.24 9.21.7.79.06.06a10.48 10.48 0 0 0 7.6 3.24 10.37 10.37 0 0 0 10.5-10.33A10.38 10.38 0 0 0 50.09 0a10.51 10.51 0 0 0-8.17 3.89L46 8.4l.54-.66a4.42 4.42 0 1 1 3.56 7 4.45 4.45 0 0 1-3.22-1.36l-.67-.76-8.3-9.3a10.51 10.51 0 0 0-15.73.62z" fill="#4b5d67"/></svg>