<svg width="34" height="63" viewBox="0 0 34 63" xmlns="http://www.w3.org/2000/svg" xmlns:xlink="http://www.w3.org/1999/xlink"><g id="Page-1" stroke="none" stroke-width="1" fill="none" fill-rule="evenodd"><g id="desktop" transform="translate(-438 -1425)" fill="#80BA27" fill-rule="nonzero"><g id="Group-2" transform="translate(396 1400)"><path d="M55.116 25.053a3.776 3.776 0 0 0-3.758 3.758v3.757c0 .655.232 1.329.705 1.801.354.354.804.578 1.291.666a1.58 1.58 0 0 1-.704.313h-.04c-5.69 1.249-10.02 6.27-10.02 12.37v3.64c0 1.577 1.115 2.695 2.505 3.249v16.05c-1.39.553-2.506 1.671-2.506 3.248v7.516c0 3.44 2.825 6.263 6.264 6.263h20.042c3.439 0 6.263-2.824 6.263-6.263v-7.516c0-1.577-1.115-2.695-2.505-3.249v-16.05c1.39-.553 2.505-1.671 2.505-3.248v-3.64c0-6.1-4.331-11.121-10.021-12.37h-.04a1.578 1.578 0 0 1-.704-.313 2.416 2.416 0 0 0 1.292-.666c.472-.472.704-1.146.704-1.8V28.81a3.776 3.776 0 0 0-3.757-3.758h-7.516zm0 2.505h7.516c.694 0 1.252.558 1.252 1.253v3.757h-10.02v-3.757c0-.695.557-1.253 1.252-1.253zm.822 7.516h5.872c.454 1.31 1.377 2.417 2.818 2.7v.04c.012.002.027-.002.04 0 4.563 1.019 7.985 4.993 7.985 9.903v3.64a1.25 1.25 0 0 1-1.253 1.254H50.105v2.505h20.042v15.031H50.105v2.506H71.4c.695 0 1.253.558 1.253 1.252v7.516a3.762 3.762 0 0 1-3.758 3.758H48.853a3.762 3.762 0 0 1-3.758-3.758v-7.516c0-.694.558-1.252 1.252-1.252H47.6V52.61h-1.253a1.249 1.249 0 0 1-1.252-1.253v-3.64c0-4.91 3.422-8.885 7.985-9.904.019-.004.02-.036.04-.04 1.44-.283 2.363-1.39 2.818-2.7z" id="Shape"/></g></g></g></svg>