<svg width="54" height="54" viewBox="0 0 54 54" xmlns="http://www.w3.org/2000/svg" xmlns:xlink="http://www.w3.org/1999/xlink"><g id="Page-1" stroke="none" stroke-width="1" fill="none" fill-rule="evenodd"><g id="desktop" transform="translate(-964 -1432)" fill="#E52081" fill-rule="nonzero"><g id="Group-3" transform="translate(931 1400)"><path d="M60.009 32.53a.955.955 0 0 0-.118.038H42.59a1.253 1.253 0 0 0-.117 0 1.253 1.253 0 0 0-.117 0c-.203.045-.391.14-.548.274l-7.399 6.185-.117.079a1.253 1.253 0 0 0-.196.156v.04h-.04v.078a1.253 1.253 0 0 0-.077.117 1.253 1.253 0 0 0-.118.235c-.02.077-.033.155-.039.235a1.253 1.253 0 0 0 0 .235v43.724c0 .692.56 1.253 1.253 1.253H85.18c.692 0 1.253-.56 1.253-1.253V40.28c.005-.065.005-.13 0-.196a1.253 1.253 0 0 0 0-.117v-.079a1.253 1.253 0 0 0-.04-.039 1.253 1.253 0 0 0 0-.117 1.253 1.253 0 0 0-.039-.078 1.253 1.253 0 0 0-.039-.04v-.078a1.253 1.253 0 0 0-.039-.039 1.253 1.253 0 0 0-.04-.078 1.253 1.253 0 0 0-.077-.079 1.253 1.253 0 0 0-.04-.078 1.253 1.253 0 0 0-.078-.078 1.253 1.253 0 0 0-.078-.078l-.118-.079a1.253 1.253 0 0 0-.078-.078l-7.32-6.107a1.253 1.253 0 0 0-.783-.274H60.4a1.253 1.253 0 0 0-.391-.039zm-16.95 2.544h15.815v3.758H38.558l4.501-3.758zm18.32 0h15.814l4.502 3.758H61.38v-3.758zm-25.053 6.263h47.6v41.337h-47.6V41.337zm19.416 5.01a3.127 3.127 0 0 0-3.131 3.132 3.127 3.127 0 0 0 3.131 3.132h8.769a3.127 3.127 0 0 0 3.131-3.132 3.127 3.127 0 0 0-3.131-3.132h-8.769zm0 2.506h8.769c.27 0 .626.355.626.626s-.355.626-.626.626h-8.769c-.271 0-.626-.355-.626-.626s.355-.626.626-.626zm11.9 17.536l-3.758 3.758h2.505v5.01h2.506v-5.01H71.4l-3.758-3.758zm8.769 0l-3.758 3.758h2.505v5.01h2.505v-5.01h2.505l-3.757-3.758zM63.884 76.411v2.505h16.284V76.41H63.884z" id="Shape"/></g></g></g></svg>