<svg version="1.1" id="Слой_1" xmlns="http://www.w3.org/2000/svg" xmlns:xlink="http://www.w3.org/1999/xlink" x="0" y="0" viewBox="0 0 251 26" xml:space="preserve" enable-background="new 0 0 251 26"><style>.st0{fill:#80ba27}.st2{fill:#fff}.st4{fill:#4b5d67}</style><switch><g><g id="Page-1_1_"><g id="desktop" transform="translate(-152 -164)"><g id="Page-1" transform="translate(152 164)"><path id="Fill-1" class="st0" d="M80.3 11.6v-6h3.3c2.6 0 3.9 1 3.9 2.9 0 2-1.3 3-3.8 3h-3.4zM75.1 1.2V21h5.1v-5.4H84c6.3 0 8.8-2.9 8.8-6.9 0-4.3-2.8-7.5-9.2-7.5h-8.5z"/><path id="Fill-3" class="st0" d="M100.2 9.3h9.8c0-2.5-1.7-4.3-4.6-4.3-2.9 0-4.6 1.4-5.2 4.3zm13.3 9.7c-2 1.6-4.5 2.5-7.7 2.5s-5.8-1-7.8-2.9-2.9-4.4-2.9-7.5c0-2.9 1-5.4 2.9-7.4s4.5-3 7.7-3c2.6 0 4.9.9 6.7 2.6 1.8 1.7 2.8 3.9 2.8 6.6 0 1.1-.1 2-.3 2.7h-14.5c.4 2.9 2.8 4.6 6 4.6 2.3 0 4.1-.6 5.7-1.8l1.4 3.6z"/><g id="Group-7" transform="translate(117.234 1.13)"><defs><filter id="Adobe_OpacityMaskFilter" filterUnits="userSpaceOnUse" x=".7" y=".1" width="21.8" height="24.4"><feColorMatrix values="1 0 0 0 0 0 1 0 0 0 0 0 1 0 0 0 0 0 1 0"/></filter></defs><mask maskUnits="userSpaceOnUse" x=".7" y=".1" width="21.8" height="24.4" id="mask-2"><g filter="url(#Adobe_OpacityMaskFilter)"><path id="path-1" class="st2" d="M.7 24.5h21.8V.1H.7z"/></g></mask><path id="Fill-5" mask="url(#mask-2)" fill="#4b5d67" d="M.7 19.9V.1h5.1v15.1H14V.1h5.2v15.1h3.3v9.3h-4.8v-4.6z"/></g><path id="Fill-8" class="st4" d="M147.5 21h-5.1V1.2h5.1v12.6l9.3-12.6h5.1V21h-5.1V8.5z"/><path id="Fill-10" class="st4" d="M184.3 1.2l-7.7 9.4 8.6 10.4h-6.7l-7.9-10 7.2-9.8h6.5zm-19 19.8h5.1V1.2h-5.1V21z"/><path id="Fill-12" class="st4" d="M201.5 21V6.3h-5.3l-.1 2.1c-1.2 10.8-3.5 13-9 13l-.4-4.9c.7 0 1.2-.1 1.8-.5 1.2-.9 2.4-3.8 2.7-8.6l.3-6.2h15.2V21h-5.2z"/><path id="Fill-14" class="st4" d="M214.3 9.3h9.8c0-2.5-1.7-4.3-4.6-4.3-2.8 0-4.6 1.4-5.2 4.3zm13.3 9.7c-2 1.6-4.5 2.5-7.7 2.5s-5.8-1-7.8-2.9-2.9-4.4-2.9-7.5c0-2.9 1-5.4 2.9-7.4s4.5-3 7.7-3c2.6 0 4.9.9 6.7 2.6 1.8 1.7 2.8 3.9 2.8 6.6 0 1.1-.1 2-.3 2.7h-14.5c.4 2.9 2.8 4.6 6 4.6 2.3 0 4.1-.6 5.7-1.8l1.4 3.6z"/><g id="Group-18" transform="translate(231.461 1.13)"><defs><filter id="Adobe_OpacityMaskFilter_1_" filterUnits="userSpaceOnUse" x=".1" y=".1" width="19" height="19.8"><feColorMatrix values="1 0 0 0 0 0 1 0 0 0 0 0 1 0 0 0 0 0 1 0"/></filter></defs><mask maskUnits="userSpaceOnUse" x=".1" y=".1" width="19" height="19.8" id="mask-4"><g filter="url(#Adobe_OpacityMaskFilter_1_)"><path id="path-3" class="st2" d="M19.2 19.9V.1H.1v19.8z"/></g></mask><path id="Fill-16" mask="url(#mask-4)" fill="#4b5d67" d="M14 19.9v-7.6H5.3v7.6H.1V.1h5.2v7.5H14V.1h5.2v19.8z"/></g><g id="Group-21" transform="translate(0 .387)"><defs><filter id="Adobe_OpacityMaskFilter_2_" filterUnits="userSpaceOnUse" x="0" y=".4" width="38.4" height="20.6"><feColorMatrix values="1 0 0 0 0 0 1 0 0 0 0 0 1 0 0 0 0 0 1 0"/></filter></defs><mask maskUnits="userSpaceOnUse" x="0" y=".4" width="38.4" height="20.6" id="mask-6"><g filter="url(#Adobe_OpacityMaskFilter_2_)"><path id="path-5" class="st2" d="M0 .4v20.7h38.4V.4z"/></g></mask><path id="Fill-19" d="M34.4 12.7l-.5.6c-.8 1.1-2.1 1.8-3.6 1.8-1.3 0-2.4-.5-3.2-1.4l-8.2-9.2-.7-.8-.1-.1c-1.9-2-4.6-3.2-7.6-3.2C4.7.4 0 5 0 10.7 0 16.4 4.7 21 10.4 21.1c3.3 0 6.3-1.5 8.2-3.9l-4-4.5-.6.6c-.8 1.1-2.1 1.8-3.6 1.8-2.5 0-4.4-2-4.4-4.4 0-2.4 2-4.4 4.4-4.4 1.3 0 2.4.5 3.2 1.4l.7.8 8.3 9.3c1.9 2 4.6 3.2 7.6 3.2 3.3 0 6.2-1.5 8.1-3.9l-3.9-4.4z" mask="url(#mask-6)" fill="#80ba27"/></g><path id="Fill-22" class="st4" d="M26.1 9.2l.5-.6c.8-1.1 2.1-1.8 3.6-1.8 1.3 0 2.4.5 3.2 1.4l8.2 9.2.7.8.1.1c1.9 2 4.6 3.2 7.6 3.2 5.8 0 10.4-4.6 10.4-10.3C60.4 5.5 55.7.9 50 .9c-3.3 0-6.3 1.5-8.2 3.9l4 4.5.5-.7c.8-1.1 2.1-1.8 3.6-1.8 2.5 0 4.4 2 4.4 4.4 0 2.4-2 4.4-4.4 4.4-1.3 0-2.4-.5-3.2-1.4l-.7-.8-8.3-9.3c-1.9-2-4.6-3.2-7.6-3.2-3.3 0-6.2 1.5-8.1 3.9l4.1 4.4z"/></g></g></g></g></switch></svg>