<svg xmlns="http://www.w3.org/2000/svg" width="44" height="42" viewBox="0 0 44 42">
    <path fill="#80BA27" fill-rule="nonzero" d="M1 0v6c-.064.31-1 4.838-1 7.5 0 1.379.27 2.697 1 3.75V42H43V17.25c.73-1.053 1-2.371 1-3.75 0-2.632-.917-7.036-1-7.438A1 1 0 0 0 43 6V0H1zm2 2h38v3h-4.813a1 1 0 0 0-.406 0H29.22a1 1 0 0 0-.313-.031 1 1 0 0 0-.093.031h-6.594a1 1 0 0 0-.313-.031 1 1 0 0 0-.093.031h-6.594a1 1 0 0 0-.313-.031 1 1 0 0 0-.094.031H8.22a1 1 0 0 0-.313-.031A1 1 0 0 0 7.813 5H3V2zm-.125 5H7v8.875C6.36 16.552 5.496 17 4.5 17c-.773 0-1.262-.196-1.625-.563a1 1 0 0 0-.25-.312C2.226 15.55 2 14.606 2 13.5c0-1.971.703-5.584.875-6.5zM9 7h5v8.875c-.64.677-1.504 1.125-2.5 1.125s-1.86-.448-2.5-1.125V7zm7 0h5v8.875c-.64.677-1.504 1.125-2.5 1.125s-1.86-.448-2.5-1.125V7zm7 0h5v8.906c-.638.668-1.507 1.094-2.5 1.094-.996 0-1.86-.448-2.5-1.125V7zm7 0h5v8.906c-.638.668-1.507 1.094-2.5 1.094-.993 0-1.862-.426-2.5-1.094V7zm7 0h4.125c.172.916.875 4.529.875 6.5 0 .985-.18 1.824-.5 2.406a1 1 0 0 0-.469.625c-.351.309-.823.469-1.531.469-.993 0-1.862-.426-2.5-1.094V7zm-8 10.531c.96.84 2.122 1.469 3.5 1.469 1.378 0 2.54-.629 3.5-1.469.96.84 2.122 1.469 3.5 1.469.532 0 1.043-.093 1.5-.25V40h-3V22H27v18H3V18.75c.457.157.968.25 1.5.25 1.376 0 2.541-.601 3.5-1.438C8.959 18.4 10.124 19 11.5 19s2.541-.601 3.5-1.438C15.959 18.4 17.124 19 18.5 19s2.541-.601 3.5-1.438C22.959 18.4 24.124 19 25.5 19c1.378 0 2.54-.629 3.5-1.469zM6 22v15h18V22H6zm2 2h14v11H8V24zm21 0h7v16h-7V24z"/>
</svg>
