<svg xmlns="http://www.w3.org/2000/svg" xmlns:xlink="http://www.w3.org/1999/xlink" width="554" height="347" viewBox="0 0 554 347">
    <defs>
        <path id="a" d="M.94.876h552.628V346.92H.94z"/>
        <path id="d" d="M.91 0h560.031v27.997H.91z"/>
        <filter id="c" width="105.2%" height="203.6%" x="-2.6%" y="-44.6%" filterUnits="objectBoundingBox">
            <feOffset dy="2" in="SourceAlpha" result="shadowOffsetOuter1"/>
            <feGaussianBlur in="shadowOffsetOuter1" result="shadowBlurOuter1" stdDeviation="4.5"/>
            <feColorMatrix in="shadowBlurOuter1" values="0 0 0 0 0 0 0 0 0 0 0 0 0 0 0 0 0 0 0.1 0"/>
        </filter>
        <path id="e" d="M.131 5.235h4.197V.021H.131v5.214z"/>
        <path id="g" d="M0 .086v4.41h7.394V.086H0z"/>
    </defs>
    <g fill="none" fill-rule="evenodd">
        <mask id="b" fill="#fff">
            <use xlink:href="#a"/>
        </mask>
        <use fill="#D8D8D8" xlink:href="#a"/>
        <g mask="url(#b)">
            <g transform="translate(-7 1)">
                <path fill="#F8F8F8" d="M1 0h560v512H1z"/>
                <use fill="#000" filter="url(#c)" xlink:href="#d"/>
                <use fill="#FFF" xlink:href="#d"/>
                <path fill="#7BB736" d="M280.5 26.947H312v1.05h-31.5z"/>
                <path fill="#80BA27" d="M92.944 14.72v-1.27h.626c.497 0 .745.207.745.63 0 .423-.248.64-.736.64h-.635zm-.985-2.21v4.23h.985v-1.157h.72c1.208 0 1.696-.61 1.696-1.465 0-.912-.548-1.607-1.773-1.607H91.96zM96.779 14.23h1.892c.009-.526-.334-.92-.882-.92-.557 0-.9.31-1.01.92zm2.56 2.086c-.376.348-.865.526-1.473.526-.625 0-1.122-.206-1.507-.61-.377-.404-.566-.94-.566-1.607 0-.63.189-1.156.557-1.579.369-.422.865-.639 1.482-.639.505 0 .942.188 1.293.555.351.366.531.836.531 1.41 0 .234-.017.432-.06.582h-2.783c.077.63.54.986 1.156.986.437 0 .796-.131 1.088-.385l.282.761z"/>
                <g transform="translate(100.06 12.49)">
                    <mask id="f" fill="#fff">
                        <use xlink:href="#e"/>
                    </mask>
                    <path fill="#4B5D67" d="M.131 4.249V.02h.986v3.223H2.7V.02h.985v3.223h.642v1.992h-.925v-.987z" mask="url(#f)"/>
                </g>
                <path fill="#4B5D67" d="M105.88 16.739h-.984v-4.228h.985v2.678l1.798-2.678h.985v4.228h-.985v-2.678zM112.956 12.51l-1.481 2.012 1.661 2.217h-1.285l-1.524-2.133 1.387-2.095h1.242zm-3.648 4.229h.985V12.51h-.985v4.228zM116.28 16.739v-3.148h-1.02l-.026.451c-.223 2.312-.668 2.772-1.738 2.782l-.086-1.053c.128.01.24-.028.351-.113.232-.187.463-.817.522-1.832l.06-1.315h2.921v4.228h-.985zM118.738 14.23h1.893c.008-.526-.334-.92-.883-.92-.556 0-.899.31-1.01.92zm2.56 2.086c-.376.348-.864.526-1.472.526-.626 0-1.122-.206-1.508-.61-.377-.404-.565-.94-.565-1.607 0-.63.188-1.156.557-1.579.368-.422.865-.639 1.481-.639.506 0 .943.188 1.294.555.35.366.53.836.53 1.41 0 .234-.017.432-.06.582h-2.783c.077.63.54.986 1.156.986.437 0 .797-.131 1.088-.385l.283.761zM124.741 16.739v-1.616h-1.687v1.616h-.985v-4.228h.985v1.597h1.687v-1.597h.985v4.228z"/>
                <g transform="translate(77.5 12.331)">
                    <mask id="h" fill="#fff">
                        <use xlink:href="#g"/>
                    </mask>
                    <path fill="#80BA27" d="M6.619 2.708l-.1.135-.005.008a.829.829 0 0 1-.685.377.817.817 0 0 1-.62-.293L3.623.967 3.488.799l-.01-.013L3.472.78 3.472.78A1.932 1.932 0 0 0 2.01.086C.9.087 0 1.074 0 2.291c0 1.218.9 2.204 2.01 2.205.635 0 1.204-.326 1.57-.83L2.804 2.7l-.103.142-.007.008a.827.827 0 0 1-.684.377c-.472 0-.854-.42-.855-.937.001-.517.383-.937.855-.937a.81.81 0 0 1 .618.29l.13.162 1.595 1.98.008.01.004.005.003.002c.364.426.887.693 1.461.693.633 0 1.2-.323 1.565-.824l-.775-.964z" mask="url(#h)"/>
                </g>
                <path fill="#4B5D67" d="M82.529 14.205l.099-.134.005-.01a.83.83 0 0 1 .685-.375c.246 0 .463.11.62.292l1.586 1.969.136.168.01.013.005.004.002.002c.363.426.886.693 1.461.693 1.11 0 2.01-.986 2.01-2.205 0-1.217-.9-2.203-2.01-2.204-.634 0-1.204.326-1.57.83l.776.965.104-.142.005-.01a.831.831 0 0 1 .685-.375c.472 0 .854.42.855.936-.001.518-.383.937-.855.937a.815.815 0 0 1-.618-.29l-.13-.161-1.594-1.98-.009-.01-.005-.005-.002-.003a1.927 1.927 0 0 0-1.462-.692c-.631 0-1.199.323-1.565.824l.776.963z"/>
                <text font-family="Circe-Regular, Circe" font-size="4.9" opacity=".3">
                    <tspan x="232.802" y="16.224" fill="#000">Объявления</tspan>
                </text>
                <text font-family="Circe-Light, Circe" font-size="9.1" font-weight="300">
                    <tspan x="123" y="53.796" fill="#000">Мои сделки</tspan>
                </text>
                <text font-family="Circe-Regular, Circe" font-size="4.9">
                    <tspan x="282.95" y="17.249" fill="#000">Мои сделки</tspan>
                </text>
                <ellipse cx="477.375" cy="13.824" fill="#000" rx="6.125" ry="6.124"/>
                <text font-family="Circe-Regular, Circe" font-size="3.85">
                    <tspan x="472.607" y="15.899" fill="#FFF">ИА</tspan>
                </text>
                <path fill="#7BB736" d="M488.75 15.398l1.75-2.1H487z"/>
                <path fill="#4F636F" fill-rule="nonzero" d="M455.85 11.199a.538.538 0 0 0-.525.525v.24a2.427 2.427 0 0 0-1.925 2.385v1.574l-.7.81v.415h6.3v-.415l-.7-.81V14.35c0-1.183-.82-2.146-1.925-2.385v-.24a.538.538 0 0 0-.525-.525zm-.7 6.3c0 .384.315.7.7.7.385 0 .7-.316.7-.7h-1.4z"/>
                <rect width="4.2" height="3.5" x="456.2" y="10.499" fill="#E72081" rx=".7"/>
                <text font-family="Circe-ExtraBold, Circe" font-size="3.15" font-weight="600">
                    <tspan x="456.816" y="12.799" fill="#FFF">10</tspan>
                </text>
                <path fill="#FFF" stroke="#EBEBEB" stroke-width=".7" d="M123.35 72.802v200.162c0 1.75 1.41 3.159 3.156 3.159h314.988a3.153 3.153 0 0 0 3.156-3.16V72.804c0-1.75-1.41-3.16-3.156-3.16H126.506a3.153 3.153 0 0 0-3.156 3.16z"/>
                <text font-family="Circe-Regular, Circe" font-size="4.9">
                    <tspan x="220.3" y="205.88" fill="#000">Наличные (постоплата в течение 7 дней)</tspan>
                </text>
                <text font-family="Circe-Regular, Circe" font-size="4.9">
                    <tspan x="177.95" y="205.88" fill="#4F636F">Условия оплаты</tspan>
                </text>
                <text font-family="Circe-Regular, Circe" font-size="4.9">
                    <tspan x="220.3" y="226.878" fill="#000">28 марта 2017</tspan>
                </text>
                <text font-family="Circe-Regular, Circe" font-size="4.9">
                    <tspan x="177.95" y="226.878" fill="#4F636F">Отгрузка до</tspan>
                </text>
                <path stroke="#EBEBEB" stroke-width=".5" d="M177.95 214.879h157.677"/>
                <text font-family="Circe-Regular, Circe" font-size="4.9">
                    <tspan x="177.95" y="246.476" fill="#4F636F">Условия</tspan>
                </text>
                <path stroke="#EBEBEB" stroke-width=".5" d="M177.95 234.477h157.677M123 167.634h321.98"/>
                <path fill="#FFDC27" d="M222.25 86.792l-1.234.648.235-1.374-.998-.973 1.38-.2.617-1.251.617 1.25 1.38.2-.998.974.235 1.374zM226.975 86.792l-1.234.648.235-1.374-.998-.973 1.38-.2.617-1.251.617 1.25 1.38.2-.998.974.235 1.374zM231.7 86.792l-1.234.648.235-1.374-.998-.973 1.38-.2.617-1.251.617 1.25 1.38.2-.998.974.235 1.374zM236.425 86.792l-1.234.648.235-1.374-.998-.973 1.38-.2.617-1.251.617 1.25 1.38.2-.998.974.235 1.374z"/>
                <path fill="#D8D8D8" d="M241.15 86.792l-1.234.648.235-1.374-.998-.973 1.38-.2.617-1.251.617 1.25 1.38.2-.998.974.235 1.374z"/>
                <text font-family="Circe-Light, Circe" font-size="8.4" font-weight="300">
                    <tspan x="177.95" y="187.833" fill="#7BB736">Макулатура: </tspan> <tspan x="226.326" y="187.833" fill="#000">типографская резка</tspan>
                </text>
                <text font-family="Circe-Light, Circe" font-size="6.3" font-weight="300">
                    <tspan x="384.13" y="190.082" fill="#000">6300 кг.</tspan>
                </text>
                <text font-family="Circe-Light, Circe" font-size="6.3" font-weight="300">
                    <tspan x="385.849" y="217.729" fill="#000">7123 м</tspan>
                </text>
                <text font-family="Circe-Light, Circe" font-size="3.5" font-weight="300">
                    <tspan x="403.7" y="227.628" fill="#000">3</tspan>
                </text>
                <text font-family="Circe-Regular, Circe" font-size="4.2">
                    <tspan x="385.443" y="199.281" fill="#4F636F">Вес сырья</tspan>
                </text>
                <text font-family="Circe-Regular, Circe" font-size="4.2">
                    <tspan x="382.437" y="227.278" fill="#4F636F">Объем сырья</tspan>
                </text>
                <path stroke="#F0F0F0" stroke-width=".5" d="M431.52 207.53h-75.776"/>
                <text font-family="Circe-Bold, Circe" font-size="3.15" font-weight="bold">
                    <tspan x="223.845" y="245.526" fill="#000">ДОВЕРЕННОСТЬ НА ВОДИТЕЛЯ</tspan>
                </text>
                <text font-family="Circe-Bold, Circe" font-size="3.15" font-weight="bold">
                    <tspan x="282.587" y="245.526" fill="#000">ПЛАТНЫЙ ВЪЕЗД</tspan>
                </text>
                <text font-family="Circe-Bold, Circe" font-size="3.15" font-weight="bold">
                    <tspan x="223.281" y="257.775" fill="#C3C3C3">ВОДИТЕЛЬ-ГРАЖДАНИН РФ</tspan>
                </text>
                <rect width="56.2" height="8.249" x="220.55" y="241.376" stroke="#7BB736" stroke-width=".5" rx="1.75"/>
                <path stroke="#E3E3E3" stroke-width=".5" d="M220.2 255.125v5.25c0 .832.668 1.5 1.497 1.5h47.256c.83 0 1.497-.67 1.497-1.5v-5.25c0-.833-.668-1.5-1.497-1.5h-47.256c-.83 0-1.497.67-1.497 1.5z"/>
                <text font-family="Circe-Bold, Circe" font-size="3.15" font-weight="bold">
                    <tspan x="276.237" y="257.775" fill="#C3C3C3">НУЖНЫ ББ ВЗАМЕН</tspan>
                </text>
                <path stroke="#E3E3E3" stroke-width=".5" d="M273.75 255.125v5.25c0 .832.671 1.5 1.506 1.5h32.888c.838 0 1.506-.669 1.506-1.5v-5.25c0-.833-.671-1.5-1.506-1.5h-32.888c-.838 0-1.506.669-1.506 1.5z"/>
                <rect width="32.05" height="8.249" x="280.05" y="241.376" stroke="#7BB736" stroke-width=".5" rx="1.75"/>
                <text font-family="Circe-Light, Circe" font-size="8.4" font-weight="300">
                    <tspan x="177.95" y="88.792" fill="#000">Юг Сырье</tspan>
                </text>
                <text font-family="Circe-Light, Circe" font-size="6.3" font-weight="300">
                    <tspan x="133.85" y="87.542" fill="#4F636F">Продавец</tspan>
                </text>
                <text font-family="Circe-Light, Circe" font-size="6.3" font-weight="300">
                    <tspan x="133.5" y="186.582" fill="#4F636F">Сырье</tspan>
                </text>
                <rect width="78.25" height="55.145" x="356" y="179.083" stroke="#EBEBEB" stroke-width=".5" rx="1.75"/>
                <text font-family="Circe-ExtraBold, Circe" font-size="3.5" font-weight="600">
                    <tspan x="378.5" y="52.645" fill="#000">АКТИВНЫЕ</tspan>
                </text>
                <text font-family="Circe-ExtraBold, Circe" font-size="3.5" font-weight="600" opacity=".3">
                    <tspan x="345.95" y="52.645" fill="#000">ОТКЛИКИ</tspan>
                </text>
                <text font-family="Circe-ExtraBold, Circe" font-size="3.5" font-weight="600" opacity=".3">
                    <tspan x="413.5" y="52.645" fill="#000">ЗАКРЫТЫЕ</tspan>
                </text>
                <text font-family="Circe-Regular, Circe" font-size="4.9">
                    <tspan x="220.3" y="106.84" fill="#000">Гужиков Павел Алексеевич</tspan>
                </text>
                <text font-family="Circe-Regular, Circe" font-size="4.9">
                    <tspan x="177.95" y="106.84" fill="#4F636F">Представитель</tspan>
                </text>
                <text font-family="Circe-Regular, Circe" font-size="4.9">
                    <tspan x="220.3" y="127.838" fill="#000">Москва, ул. Академика Королева, 12, cтроение 21</tspan>
                </text>
                <text font-family="Circe-Regular, Circe" font-size="4.9">
                    <tspan x="220.3" y="136.587" fill="#7BB736">Показать на карте</tspan>
                </text>
                <text font-family="Circe-Regular, Circe" font-size="4.9">
                    <tspan x="177.95" y="127.838" fill="#4F636F">Адрес</tspan>
                </text>
                <path stroke="#EBEBEB" stroke-width=".5" d="M177.95 115.839h157.677"/>
                <text font-family="Circe-Regular, Circe" font-size="4.9">
                    <tspan x="220.3" y="155.485" fill="#000">+7 (495) 123-23-34</tspan>
                </text>
                <text font-family="Circe-Regular, Circe" font-size="4.9">
                    <tspan x="177.95" y="155.485" fill="#4F636F">Телефон</tspan>
                </text>
                <path stroke="#EBEBEB" stroke-width=".5" d="M177.95 143.486h157.677"/>
                <path fill="#FFF" stroke="#EBEBEB" stroke-width=".7" d="M123.35 286.981v200.162c0 1.75 1.41 3.16 3.156 3.16h314.988a3.153 3.153 0 0 0 3.156-3.16V286.981c0-1.75-1.41-3.159-3.156-3.159H126.506a3.153 3.153 0 0 0-3.156 3.16z"/>
                <path fill="#FFDC27" d="M282.25 300.97l-1.234.65.235-1.375-.998-.973 1.38-.2.617-1.251.617 1.25 1.38.2-.998.974.235 1.374zM286.975 300.97l-1.234.65.235-1.375-.998-.973 1.38-.2.617-1.251.617 1.25 1.38.2-.998.974.235 1.374zM291.7 300.97l-1.234.65.235-1.375-.998-.973 1.38-.2.617-1.251.617 1.25 1.38.2-.998.974.235 1.374zM296.425 300.97l-1.234.65.235-1.375-.998-.973 1.38-.2.617-1.251.617 1.25 1.38.2-.998.974.235 1.374z"/>
                <path fill="#D8D8D8" d="M301.15 300.97l-1.234.65.235-1.375-.998-.973 1.38-.2.617-1.251.617 1.25 1.38.2-.998.974.235 1.374z"/>
                <text font-family="Circe-Light, Circe" font-size="8.4" font-weight="300">
                    <tspan x="177.95" y="302.971" fill="#000">Северный Морской Порт</tspan>
                </text>
                <text font-family="Circe-Light, Circe" font-size="6.3" font-weight="300">
                    <tspan x="133.85" y="301.721" fill="#4F636F">Продавец</tspan>
                </text>
                <text font-family="Circe-Regular, Circe" font-size="4.9">
                    <tspan x="220.3" y="321.019" fill="#000">Гужиков Павел Алексеевич</tspan>
                </text>
                <text font-family="Circe-Regular, Circe" font-size="4.9">
                    <tspan x="177.95" y="321.019" fill="#4F636F">Представитель</tspan>
                </text>
                <text font-family="Circe-Regular, Circe" font-size="4.9">
                    <tspan x="220.3" y="342.017" fill="#000">Москва, ул. Академика Королева, 12, cтроение 21</tspan>
                </text>
                <text font-family="Circe-Regular, Circe" font-size="4.9">
                    <tspan x="220.3" y="350.766" fill="#7BB736">Показать на карте</tspan>
                </text>
                <text font-family="Circe-Regular, Circe" font-size="4.9">
                    <tspan x="177.95" y="342.017" fill="#4F636F">Адрес</tspan>
                </text>
                <path stroke="#EBEBEB" stroke-width=".5" d="M177.95 330.018h157.677"/>
                <rect width="78.75" height="77.342" x="355.75" y="79.792" fill="#F3F8FC" rx="1.75"/>
                <rect width="53.2" height="10.849" x="367.3" y="136.837" stroke="#7BB736" stroke-width=".7" rx="5.424"/>
                <text font-family="Circe-ExtraBold, Circe" font-size="4.2" font-weight="600">
                    <tspan x="374.65" y="144.336" fill="#000">ЗАКРЫТЬ СДЕЛКУ</tspan>
                </text>
                <text font-family="Circe-Regular, Circe" font-size="4.9">
                    <tspan x="380.747" y="122.964" fill="#7F7F7F">500 ₽ за кг.</tspan>
                </text>
                <text font-family="Circe-Light, Circe" font-size="9.1" font-weight="300">
                    <tspan x="372.9" y="116.789" fill="#000">100 000 ₽</tspan>
                </text>
                <text font-family="Circe-Regular, Circe" font-size="4.9">
                    <tspan x="372.797" y="92.917" fill="#4F636F">Сделка №1234567</tspan>
                </text>
                <rect width="78.75" height="77.342" x="355.75" y="293.971" fill="#F3F8FC" rx="1.75"/>
                <text font-family="Circe-Regular, Circe" font-size="4.9">
                    <tspan x="380.747" y="337.143" fill="#7F7F7F">500 ₽ за кг.</tspan>
                </text>
                <text font-family="Circe-Light, Circe" font-size="9.1" font-weight="300">
                    <tspan x="372.9" y="330.969" fill="#000">100 000 ₽</tspan>
                </text>
                <text font-family="Circe-Regular, Circe" font-size="4.9">
                    <tspan x="372.797" y="307.096" fill="#4F636F">Сделка №1234567</tspan>
                </text>
            </g>
        </g>
    </g>
</svg>
