<svg width="50" height="50" viewBox="0 0 50 50" xmlns="http://www.w3.org/2000/svg" xmlns:xlink="http://www.w3.org/1999/xlink"><g id="Page-1" stroke="none" stroke-width="1" fill="none" fill-rule="evenodd"><g id="desktop" transform="translate(-999 -894)" fill="#80BA27" fill-rule="nonzero"><g id="Warehouse_000000" transform="translate(999 893)"><path d="M24.844 1a1 1 0 0 0-.25.094l-24 10.781a1 1 0 0 0-.594.938v4.5a1 1 0 0 0 1.406.906L2 17.937v10.75c-.06.194-.06.4 0 .594V50a1 1 0 0 0 1 1h44a1 1 0 0 0 1-1V29.187a1 1 0 0 0 0-.406V17.938l.594.28A1 1 0 0 0 50 17.314v-4.5a1 1 0 0 0-.594-.938l-24-10.781A1 1 0 0 0 24.938 1a1 1 0 0 0-.094 0zM25 3.094l23 10.344v2.312l-.438-.188a1 1 0 0 0-.062-.03l-.031-.032a1 1 0 0 0-.063-.031h-.031a1 1 0 0 0-.094-.031L25.656 5.624a1 1 0 0 0-.062-.031l-.032-.032A1 1 0 0 0 25 5.375a1 1 0 0 0-.656.25l-21.532 9.75a1 1 0 0 0-.281.125 1 1 0 0 0-.093.031l-.032.031a1 1 0 0 0-.031.032L2 15.75v-2.313L25 3.095zm-1 4.875V28H4V17.031l5.188-2.343c.209.222.508.337.812.312h8a1 1 0 1 0 0-2h-5.094L24 7.969zm2 0L37.094 13H32a1 1 0 1 0 0 2h8a1 1 0 0 0 .75-.344L46 17.031V28H26V7.969zM4 30h20v19H4V30zm22 0h20v19H26V30zM9.719 33A1.01 1.01 0 0 0 10 35h8a1 1 0 1 0 0-2h-8a1 1 0 0 0-.094 0 1.001 1.001 0 0 0-.094 0 1.004 1.004 0 0 0-.093 0zm22 0A1.01 1.01 0 0 0 32 35h8a1 1 0 1 0 0-2h-8a1 1 0 0 0-.094 0 1.001 1.001 0 0 0-.093 0 1.004 1.004 0 0 0-.094 0z" id="Shape"/></g></g></g></svg>