<svg xmlns="http://www.w3.org/2000/svg" xmlns:xlink="http://www.w3.org/1999/xlink" width="554" height="347" viewBox="0 0 554 347">
    <defs>
        <path id="a" d="M.94.876h552.628V346.92H.94z"/>
        <rect id="c" width="220.5" height="316.615" rx="3.5"/>
        <path id="f" d="M.836 0h564.159v28.019H.836z"/>
        <filter id="e" width="105.1%" height="203.5%" x="-2.6%" y="-44.6%" filterUnits="objectBoundingBox">
            <feOffset dy="2" in="SourceAlpha" result="shadowOffsetOuter1"/>
            <feGaussianBlur in="shadowOffsetOuter1" result="shadowBlurOuter1" stdDeviation="4.5"/>
            <feColorMatrix in="shadowBlurOuter1" values="0 0 0 0 0 0 0 0 0 0 0 0 0 0 0 0 0 0 0.1 0"/>
        </filter>
        <path id="g" d="M.131 5.24h4.197V.02H.131v5.22z"/>
        <path id="i" d="M0 .086V4.5h7.394V.086H0z"/>
    </defs>
    <g fill="none" fill-rule="evenodd">
        <mask id="b" fill="#fff">
            <use xlink:href="#a"/>
        </mask>
        <use fill="#D8D8D8" xlink:href="#a"/>
        <g mask="url(#b)">
            <g transform="translate(-5 1)">
                <path fill="#4F636F" d="M1 0h564v442H1z"/>
                <g transform="translate(168.1 99.117)">
                    <mask id="d" fill="#fff">
                        <use xlink:href="#c"/>
                    </mask>
                    <use fill="#FFF" xlink:href="#c"/>
                    <path fill="#F8F8F8" d="M0 0h220.5v3.853H0z" mask="url(#d)"/>
                    <path fill="#80BA27" d="M0 0h73.5v3.853H0z" mask="url(#d)"/>
                </g>
                <text font-family="Circe-Regular, Circe" font-size="4.9">
                    <tspan x="244.75" y="196.58" fill="#888">Принимаются только jpg и png файлы, не более 3-х </tspan> <tspan x="244.75" y="203.58" fill="#888">мегабайт</tspan>
                </text>
                <ellipse cx="209.925" cy="209.617" fill="#D6DADC" rx="18.375" ry="18.387"/>
                <rect width="57.05" height="16.812" x="244.4" y="211.193" stroke="#7BB637" stroke-width=".7" rx="8.406"/>
                <text font-family="Circe-ExtraBold, Circe" font-size="4.2" font-weight="600">
                    <tspan x="254.227" y="221.464" fill="#000">ВЫБРАТЬ ФАЙЛ</tspan>
                </text>
                <text font-family="Circe-Light, Circe" font-size="7" font-weight="300">
                    <tspan x="191.55" y="178.266" fill="#4F636F">Юзерпик</tspan>
                </text>
                <use fill="#000" filter="url(#e)" xlink:href="#f"/>
                <use fill="#FFF" xlink:href="#f"/>
                <path fill="#80BA27" d="M86.944 14.73v-1.27h.626c.497 0 .745.208.745.631 0 .423-.248.64-.736.64h-.635zm-.985-2.21v4.232h.985v-1.157h.72c1.208 0 1.696-.61 1.696-1.467 0-.912-.548-1.608-1.773-1.608H85.96zM90.779 14.241h1.892c.009-.526-.334-.921-.882-.921-.557 0-.9.31-1.01.921zm2.56 2.088c-.376.348-.865.527-1.473.527-.625 0-1.122-.207-1.507-.612-.377-.404-.566-.94-.566-1.608 0-.63.189-1.156.557-1.58.369-.423.865-.639 1.482-.639.505 0 .942.188 1.293.555.351.367.531.837.531 1.41 0 .236-.017.433-.06.584h-2.783c.077.63.54.987 1.156.987.437 0 .796-.132 1.088-.386l.282.762z"/>
                <g transform="translate(94.06 12.5)">
                    <mask id="h" fill="#fff">
                        <use xlink:href="#g"/>
                    </mask>
                    <path fill="#4B5D67" d="M.131 4.252V.021h.986v3.225H2.7V.021h.985v3.225h.642V5.24h-.925v-.988z" mask="url(#h)"/>
                </g>
                <path fill="#4B5D67" d="M99.88 16.752h-.984v-4.231h.985v2.68l1.798-2.68h.985v4.231h-.985v-2.68zM106.956 12.52l-1.481 2.013 1.661 2.219h-1.285l-1.524-2.134 1.387-2.098h1.242zm-3.648 4.232h.985V12.52h-.985v4.232zM110.28 16.752v-3.15h-1.02l-.026.451c-.223 2.314-.668 2.774-1.738 2.784l-.086-1.054c.128.01.24-.028.351-.112.232-.188.463-.818.522-1.834l.06-1.316h2.921v4.231h-.985zM112.738 14.241h1.893c.008-.526-.334-.921-.883-.921-.556 0-.899.31-1.01.921zm2.56 2.088c-.376.348-.864.527-1.472.527-.626 0-1.122-.207-1.508-.612-.377-.404-.565-.94-.565-1.608 0-.63.188-1.156.557-1.58.368-.423.865-.639 1.481-.639.506 0 .943.188 1.294.555.35.367.53.837.53 1.41 0 .236-.017.433-.06.584h-2.783c.077.63.54.987 1.156.987.437 0 .797-.132 1.088-.386l.283.762zM118.741 16.752v-1.617h-1.687v1.617h-.985v-4.231h.985v1.598h1.687v-1.598h.985v4.231z"/>
                <g transform="translate(71.5 12.341)">
                    <mask id="j" fill="#fff">
                        <use xlink:href="#i"/>
                    </mask>
                    <path fill="#80BA27" d="M6.619 2.71l-.1.135-.005.009a.828.828 0 0 1-.685.376.817.817 0 0 1-.62-.293L3.623.967 3.488.8l-.01-.013L3.472.78 3.472.779A1.932 1.932 0 0 0 2.01.086C.9.087 0 1.075 0 2.293c0 1.219.9 2.206 2.01 2.206.635 0 1.204-.325 1.57-.83l-.776-.965-.103.14-.007.01a.827.827 0 0 1-.684.376c-.472 0-.854-.42-.855-.937.001-.517.383-.938.855-.938a.81.81 0 0 1 .618.291l.13.161 1.595 1.981.008.011.004.005.003.002c.364.426.887.693 1.461.693.633 0 1.2-.323 1.565-.824L6.62 2.71z" mask="url(#j)"/>
                </g>
                <path fill="#4B5D67" d="M76.529 14.216l.099-.134.005-.01a.83.83 0 0 1 .685-.376c.246 0 .463.111.62.293l1.586 1.97.136.169.01.012.005.005.002.002c.363.426.886.693 1.461.693 1.11 0 2.01-.987 2.01-2.206 0-1.218-.9-2.206-2.01-2.206-.634 0-1.204.326-1.57.831l.776.965.104-.142.005-.01a.831.831 0 0 1 .685-.376c.472 0 .854.42.855.938-.001.518-.383.937-.855.937a.815.815 0 0 1-.618-.29l-.13-.162-1.594-1.98-.009-.011-.005-.005-.002-.003a1.927 1.927 0 0 0-1.462-.692c-.631 0-1.199.323-1.565.824l.776.964z"/>
                <text font-family="Circe-Light, Circe" font-size="11.2" font-weight="300">
                    <tspan x="210.545" y="57.043" fill="#FFF">Регистрация поставщика</tspan>
                </text>
                <text font-family="Circe-Light, Circe" font-size="7" font-weight="300">
                    <tspan x="192.6" y="258.821" fill="#4F636F">Представитель</tspan>
                </text>
                <text font-family="Circe-Light, Circe" font-size="7" font-weight="300">
                    <tspan x="192.6" y="123.279" fill="#4F636F">Компания</tspan>
                </text>
                <text font-family="Circe-Light, Circe" font-size="11.2" font-weight="300">
                    <tspan x="192.6" y="147.242" fill="#CCC">Название вашей компании</tspan>
                </text>
                <text font-family="Circe-Regular, Circe" font-size="4.9">
                    <tspan x="192.6" y="282.038" fill="#4F636F">Ваше имя</tspan>
                </text>
                <text font-family="Circe-Regular, Circe" font-size="4.55">
                    <tspan x="446.907" y="15.885" fill="#000">Авторизация</tspan>
                </text>
                <rect width="44.3" height="12.809" x="439.95" y="7.605" stroke="#D0D0D0" stroke-width=".5" rx="6.405"/>
                <rect width="119" height="17.512" x="245.45" y="272.135" fill="#F6F6F6" rx="1.75"/>
                <text font-family="Circe-Regular, Circe" font-size="4.9">
                    <tspan x="192.6" y="303.052" fill="#4F636F">Ваш email</tspan>
                </text>
                <rect width="119" height="17.512" x="245.45" y="293.149" fill="#F6F6F6" rx="1.75"/>
                <text font-family="Circe-Regular, Circe" font-size="4.9">
                    <tspan x="192.6" y="345.081" fill="#4F636F">Придумайте пароль</tspan>
                </text>
                <rect width="118.5" height="17.012" x="245.7" y="335.427" fill="#F6F6F6" stroke="#E4E4E4" stroke-width=".5" rx="1.75"/>
                <path stroke="#EBEBEB" stroke-width=".5" d="M168.1 161.81h220.85M168.1 242.365h220.85"/>
                <text font-family="Circe-Regular, Circe" font-size="4.9">
                    <tspan x="251.75" y="282.038" fill="#000">Александр Македонский</tspan>
                </text>
                <text font-family="Circe-Light, Circe" font-size="4.9" font-weight="300">
                    <tspan x="228.037" y="71.195" fill="#A6C0D1">Зарегистрируйтесь, чтобы размещать сырье на </tspan> <tspan x="247.519" y="78.545" fill="#A6C0D1">продажу и заключать сделки</tspan>
                </text>
                <text font-family="Circe-Regular, Circe" font-size="4.9">
                    <tspan x="251.75" y="303.052" fill="#000">ardintsev@gmail.com</tspan>
                </text>
                <text font-family="Circe-Regular, Circe" font-size="4.9">
                    <tspan x="192.6" y="324.067" fill="#4F636F">Ваш телефон</tspan>
                </text>
                <rect width="119" height="17.512" x="245.45" y="314.163" fill="#F6F6F6" rx="1.75"/>
                <text font-family="Circe-Regular, Circe" font-size="4.9">
                    <tspan x="251.75" y="324.067" fill="#000">+7 (999) 123-23-23</tspan>
                </text>
                <path fill="#80BA27" fill-rule="nonzero" d="M372.85 277.388a3.501 3.501 0 0 0-3.5 3.503 3.501 3.501 0 1 0 7 0 3.501 3.501 0 0 0-3.5-3.503zm-.413 5.2l-1.292-1.29.494-.497.784.783 2.015-2.13.509.482-2.51 2.652zM372.85 298.403a3.501 3.501 0 0 0-3.5 3.502 3.501 3.501 0 1 0 7 0 3.501 3.501 0 0 0-3.5-3.502zm-.413 5.2l-1.292-1.291.494-.496.784.782 2.015-2.13.509.482-2.51 2.652zM372.85 319.067a3.501 3.501 0 0 0-3.5 3.502 3.501 3.501 0 1 0 7 0 3.501 3.501 0 0 0-3.5-3.502zm-.413 5.2l-1.292-1.291.494-.496.784.782 2.015-2.13.509.482-2.51 2.652z"/>
                <ellipse cx="253.5" cy="343.933" fill="#000" rx="1.4" ry="1.401"/>
                <ellipse cx="258.4" cy="343.933" fill="#000" rx="1.4" ry="1.401"/>
                <ellipse cx="263.3" cy="343.933" fill="#000" rx="1.4" ry="1.401"/>
                <ellipse cx="268.2" cy="343.933" fill="#000" rx="1.4" ry="1.401"/>
                <path stroke="#000" stroke-width=".5" d="M273.8 339.205v9.308"/>
                <path fill="#FFF" fill-rule="nonzero" d="M211.477 211.729c-.052-.565-.032-.96-.032-1.475.256-.134.713-.99.79-1.712.202-.016.518-.213.611-.987.05-.416-.149-.65-.27-.723.327-.984 1.006-4.028-1.256-4.342-.232-.41-.828-.616-1.603-.616-3.099.057-3.473 2.342-2.793 4.958-.121.073-.32.307-.27.723.093.774.41.97.61.987.077.722.553 1.578.81 1.712 0 .516.019.91-.032 1.475-.614 1.65-4.75 1.186-4.942 4.368h13.3c-.19-3.182-4.31-2.719-4.923-4.368z"/>
            </g>
        </g>
    </g>
</svg>
