<svg id="Слой_1" data-name="Слой 1" xmlns="http://www.w3.org/2000/svg" xmlns:xlink="http://www.w3.org/1999/xlink" viewBox="0 0 60.53 20.65"><defs><style>.cls-1{fill:#fff;}.cls-2{mask:url(#mask);}.cls-3{fill:#80ba27;}.cls-4{fill:#4b5d67;}</style><mask id="mask" x="0" y="0" width="38.43" height="20.65" maskUnits="userSpaceOnUse"><g id="mask-6"><polygon id="path-5" class="cls-1" points="0 0 0 20.64 38.43 20.64 38.43 0 0 0"/></g></mask></defs><title>logo_sign</title><g id="Group-21"><g class="cls-2"><path id="Fill-19" class="cls-3" d="M34.4,12.28l-.52.62,0,0a4.48,4.48,0,0,1-6.78.39L18.83,4.12l-.7-.78-.06-.06,0,0h0A10.47,10.47,0,0,0,0,10.32a10.46,10.46,0,0,0,18.6,6.44l-4-4.52L14,12.9l0,0a4.39,4.39,0,1,1-.34-5.65l.67.75,8.29,9.27,0,.05,0,0h0a10.44,10.44,0,0,0,7.59,3.25h0a10.5,10.5,0,0,0,8.13-3.86Z"/></g></g><path id="Fill-22" class="cls-4" d="M26.13,8.37l.52-.63,0,0a4.48,4.48,0,0,1,6.78-.39l8.24,9.21.7.79.06.06,0,0h0a10.48,10.48,0,0,0,7.6,3.24A10.37,10.37,0,0,0,60.53,10.32,10.38,10.38,0,0,0,50.09,0a10.51,10.51,0,0,0-8.17,3.89L46,8.4l.54-.66,0,0a4.42,4.42,0,1,1,3.56,7,4.45,4.45,0,0,1-3.22-1.36l-.67-.76L37.91,3.32l0,0,0,0h0a10.51,10.51,0,0,0-15.73.62Z"/></svg>