<svg width="46" height="46" viewBox="0 0 46 46" xmlns="http://www.w3.org/2000/svg" xmlns:xlink="http://www.w3.org/1999/xlink"><g id="Page-1" stroke="none" stroke-width="1" fill="none" fill-rule="evenodd"><g id="desktop" transform="translate(-1196 -722)" fill="#80BA27"><path d="M1219 722c-12.69 0-23 10.31-23 23s10.31 23 23 23 23-10.31 23-23-10.31-23-23-23zm0 2c11.61 0 21 9.39 21 21s-9.39 21-21 21-21-9.39-21-21 9.39-21 21-21zm3.906 11.969a1 1 0 0 0-.125.031 1 1 0 0 0-.5 1.719l6.282 6.281H1207a1 1 0 0 0-1.047 1.047c.026.552.495.979 1.047.953h21.563l-6.282 6.281a1.016 1.016 0 1 0 1.438 1.438l7.843-7.875a1 1 0 0 0 .157-.125 1 1 0 0 0 .062-.094 1 1 0 0 0 .063-.063 1 1 0 0 0 .093-.187.62.62 0 0 0 .032-.063v-.03a1 1 0 0 0 .031-.095 1 1 0 0 0 0-.312 1.002 1.002 0 0 0 0-.094 1.003 1.003 0 0 0-.031-.062v-.032a1.003 1.003 0 0 0-.032-.062v-.031a1.003 1.003 0 0 0-.03-.063 1 1 0 0 0-.032-.031 1.003 1.003 0 0 0-.031-.063 1 1 0 0 0-.125-.156h-.032a1 1 0 0 0-.062-.062l-7.906-7.938a1 1 0 0 0-.813-.312z" id="Shape" transform="matrix(-1 0 0 1 2438 0)"/></g></g></svg>