<svg width="33" height="63" viewBox="0 0 33 63" xmlns="http://www.w3.org/2000/svg" xmlns:xlink="http://www.w3.org/1999/xlink"><g id="Page-1" stroke="none" stroke-width="1" fill="none" fill-rule="evenodd"><g id="desktop" transform="translate(-613 -2076)" fill="#FFF" fill-rule="nonzero"><path d="M625.526 2076a3.776 3.776 0 0 0-3.758 3.758v3.758c0 .654.233 1.328.705 1.8.354.355.804.578 1.292.666-.185.145-.415.26-.705.313h-.039c-5.69 1.25-10.021 6.27-10.021 12.37v3.64c0 1.577 1.115 2.696 2.505 3.25v16.049c-1.39.553-2.505 1.672-2.505 3.249v7.515c0 3.44 2.824 6.264 6.263 6.264h20.042c3.44 0 6.263-2.825 6.263-6.264v-7.515c0-1.577-1.115-2.696-2.505-3.25v-16.049c1.39-.553 2.505-1.672 2.505-3.249v-3.64c0-6.1-4.33-11.12-10.02-12.37h-.04a1.578 1.578 0 0 1-.704-.313 2.416 2.416 0 0 0 1.291-.666c.473-.472.705-1.146.705-1.8v-3.758a3.776 3.776 0 0 0-3.758-3.758h-7.516zm0 2.505h7.516a1.25 1.25 0 0 1 1.253 1.253v3.758h-10.021v-3.758c0-.695.558-1.253 1.252-1.253zm.822 7.516h5.872c.455 1.31 1.378 2.418 2.818 2.701v.04c.012.001.028-.003.04 0 4.563 1.018 7.985 4.993 7.985 9.903v3.64c0 .695-.558 1.253-1.252 1.253h-21.295v2.505h20.042v15.032h-20.042v2.505h21.295c.694 0 1.252.558 1.252 1.253v7.515a3.762 3.762 0 0 1-3.758 3.758h-20.042a3.762 3.762 0 0 1-3.758-3.758v-7.515a1.25 1.25 0 0 1 1.253-1.253h1.253v-20.042h-1.253a1.249 1.249 0 0 1-1.253-1.253v-3.64c0-4.91 3.422-8.885 7.986-9.904.019-.003.02-.035.039-.039 1.44-.283 2.364-1.39 2.818-2.701z" id="Shape"/></g></g></svg>