<svg width="53" height="53" viewBox="0 0 53 53" xmlns="http://www.w3.org/2000/svg" xmlns:xlink="http://www.w3.org/1999/xlink"><g id="Page-1" stroke="none" stroke-width="1" fill="none" fill-rule="evenodd"><g id="desktop" transform="translate(-754 -2080)" fill="#FFF" fill-rule="nonzero"><path d="M780.193 2080.002a.949.949 0 0 0-.117.04h-17.302a1.257 1.257 0 0 0-.117 0 1.257 1.257 0 0 0-.118 0c-.202.044-.39.138-.548.273l-7.398 6.185-.118.078a1.252 1.252 0 0 0-.195.157v.04h-.04v.077a1.252 1.252 0 0 0-.078.118 1.253 1.253 0 0 0-.117.235c-.02.077-.034.155-.04.235a1.253 1.253 0 0 0 0 .234v43.725c0 .692.561 1.253 1.253 1.253h50.105c.692 0 1.253-.561 1.253-1.253v-43.646c.005-.065.005-.13 0-.196a1.252 1.252 0 0 0 0-.117v-.079a1.249 1.249 0 0 0-.04-.039 1.254 1.254 0 0 0 0-.117 1.251 1.251 0 0 0-.038-.079 1.249 1.249 0 0 0-.04-.039v-.078a1.26 1.26 0 0 0-.039-.04 1.254 1.254 0 0 0-.039-.077 1.25 1.25 0 0 0-.078-.079 1.254 1.254 0 0 0-.04-.078 1.25 1.25 0 0 0-.077-.078 1.26 1.26 0 0 0-.079-.079l-.117-.078a1.255 1.255 0 0 0-.078-.078l-7.32-6.107a1.253 1.253 0 0 0-.783-.274h-17.263a1.253 1.253 0 0 0-.392-.039zm-16.95 2.545h15.815v3.757h-20.316l4.502-3.757zm18.32 0h15.815l4.502 3.757h-20.317v-3.757zm-25.052 6.263h47.6v41.337h-47.6v-41.337zm19.416 5.01a3.127 3.127 0 0 0-3.132 3.132 3.127 3.127 0 0 0 3.132 3.131h8.768a3.127 3.127 0 0 0 3.132-3.131 3.127 3.127 0 0 0-3.132-3.132h-8.768zm0 2.505h8.768c.271 0 .626.355.626.627 0 .271-.355.626-.626.626h-8.768c-.272 0-.627-.355-.627-.626 0-.272.355-.627.627-.627zm11.9 17.537l-3.758 3.758h2.505v5.01h2.505v-5.01h2.505l-3.757-3.758zm8.768 0l-3.758 3.758h2.505v5.01h2.506v-5.01h2.505l-3.758-3.758zm-12.526 10.021v2.506h16.284v-2.506h-16.284z" id="Shape"/></g></g></svg>