<svg width="50" height="50" viewBox="0 0 50 50" xmlns="http://www.w3.org/2000/svg" xmlns:xlink="http://www.w3.org/1999/xlink"><g id="Page-1" stroke="none" stroke-width="1" fill="none" fill-rule="evenodd"><g id="desktop" transform="translate(-583 -891)" fill="#80BA27" fill-rule="nonzero"><g id="Factory_000000" transform="translate(583 891)"><path d="M39.094 0c-1.432 0-2.69 1.114-2.75 2.594h-.032v.094l-1.874 19.406A1 1 0 0 0 34 22h-1v-6a1 1 0 0 0-1.438-.906L17 21.875V17a1 1 0 0 0-1.469-.875l-15 8A1 1 0 0 0 0 25v24a1 1 0 0 0 1 1h48a1 1 0 0 0 1-1.063L47.187 2.75a1 1 0 0 0 0-.063C47.04 1.216 45.9 0 44.407 0h-5.313zm0 2h5.312c.297 0 .704.378.782.875L47.938 48H2V25.594l13-6.938V23a1 1 0 0 0 1 1h1a1 1 0 0 0 .438-.094L31 17.563V23a1 1 0 0 0 1 1h1v13a1.001 1.001 0 0 0 2 .094V37l3.281-34.219a1 1 0 0 0 .032-.094c0-.466.247-.687.78-.687zM7 27v5h3v-5H7zm9 0v5h3v-5h-3zm9 0v5h3v-5h-3zM7 36v5h3v-5H7zm9 0v5h3v-5h-3zm9 0v5h3v-5h-3z" id="Shape"/></g></g></g></svg>