<svg width="147" height="15" viewBox="0 0 147 15" xmlns="http://www.w3.org/2000/svg" xmlns:xlink="http://www.w3.org/1999/xlink"><g id="Page-1" stroke="none" stroke-width="1" fill="none" fill-rule="evenodd"><g id="desktop" transform="translate(-145 -4491)" fill="#CCC"><g id="Page-1" transform="translate(145 4491)"><path d="M47.003 6.673V3.246h1.907c1.511 0 2.267.559 2.267 1.701s-.756 1.726-2.241 1.726h-1.933zM44.005.708V12.13h2.998V9.007h2.193c3.675 0 5.161-1.649 5.161-3.959 0-2.461-1.668-4.34-5.396-4.34h-4.956z" id="Fill-1"/><path d="M58.673 5.353h5.761c.026-1.421-1.017-2.488-2.685-2.488-1.694 0-2.737.838-3.076 2.488zm7.794 5.634c-1.146.94-2.632 1.422-4.483 1.422-1.903 0-3.415-.558-4.588-1.65-1.147-1.091-1.72-2.538-1.72-4.34 0-1.7.573-3.122 1.694-4.264C58.491 1.012 60.003.429 61.88.429c1.537 0 2.867.507 3.935 1.498 1.069.99 1.616 2.259 1.616 3.807 0 .634-.052 1.167-.182 1.574h-8.472c.235 1.7 1.642 2.664 3.52 2.664 1.329 0 2.424-.355 3.31-1.04l.86 2.055z" id="Fill-3"/><path id="Fill-6" d="M69.058 12.13V.708h2.998v8.706h4.823V.708h2.997v8.706h1.955v5.381h-2.815V12.13z"/><path id="Fill-9" d="M86.375 12.13h-2.998V.708h2.998v7.234L91.85.708h2.998V12.13H91.85V4.896z"/><path d="M107.91.708l-4.508 5.432 5.056 5.99h-3.91l-4.64-5.762 4.222-5.66h3.78zM96.807 12.13h2.998V.708h-2.998V12.13z" id="Fill-11"/><path d="M118.023 12.13V3.627h-3.101l-.079 1.218c-.678 6.244-2.033 7.488-5.291 7.513l-.261-2.843c.39.026.73-.075 1.07-.304.702-.507 1.406-2.208 1.588-4.949l.183-3.554h8.889V12.13h-2.998z" id="Fill-13"/><path d="M125.506 5.353h5.761c.026-1.421-1.017-2.488-2.686-2.488-1.693 0-2.735.838-3.075 2.488zm7.794 5.634c-1.147.94-2.632 1.422-4.484 1.422-1.903 0-3.414-.558-4.587-1.65-1.147-1.091-1.72-2.538-1.72-4.34 0-1.7.573-3.122 1.694-4.264 1.12-1.143 2.633-1.726 4.509-1.726 1.538 0 2.868.507 3.937 1.498 1.068.99 1.615 2.259 1.615 3.807 0 .634-.052 1.167-.182 1.574h-8.472c.236 1.7 1.642 2.664 3.519 2.664 1.33 0 2.424-.355 3.311-1.04l.86 2.055z" id="Fill-15"/><path id="Fill-18" d="M143.777 12.13V7.764h-5.135v4.366h-2.998V.708h2.998v4.315h5.135V.708h2.998V12.13z"/><path d="M20.144 7.54l-.301.362-.017.024a2.613 2.613 0 0 1-2.085 1.017 2.626 2.626 0 0 1-1.889-.79l-4.824-5.318-.412-.453-.033-.034-.011-.016-.006-.005a6.197 6.197 0 0 0-4.45-1.87C2.736.458.002 3.123 0 6.411c.002 3.29 2.736 5.954 6.116 5.956a6.165 6.165 0 0 0 4.779-2.244L8.535 7.52l-.315.381-.02.024a2.61 2.61 0 0 1-2.084 1.017c-1.435-.002-2.597-1.135-2.6-2.53.003-1.397 1.165-2.532 2.6-2.532.747 0 1.403.297 1.883.786l.394.435 4.854 5.347.026.03.012.012.007.005a6.18 6.18 0 0 0 4.45 1.872h.001a6.166 6.166 0 0 0 4.761-2.225l-2.36-2.604z" id="Fill-21"/><path d="M15.305 5.285l.3-.363.018-.024a2.619 2.619 0 0 1 2.085-1.016c.748 0 1.408.3 1.888.79l4.826 5.318.411.455.033.033.013.013.006.006a6.175 6.175 0 0 0 4.449 1.87c3.379-.001 6.114-2.663 6.116-5.955C35.448 3.124 32.713.46 29.334.457a6.172 6.172 0 0 0-4.78 2.245l2.361 2.603.317-.383.017-.024a2.621 2.621 0 0 1 2.085-1.016c1.435 0 2.597 1.134 2.6 2.53-.003 1.399-1.165 2.529-2.6 2.531a2.615 2.615 0 0 1-1.884-.785l-.395-.436-4.851-5.347-.027-.027-.014-.014-.007-.007a6.18 6.18 0 0 0-4.448-1.87 6.171 6.171 0 0 0-4.764 2.225l2.361 2.603z" id="Fill-24"/></g></g></g></svg>