<svg width="251" height="26" viewBox="0 0 251 26" xmlns="http://www.w3.org/2000/svg" xmlns:xlink="http://www.w3.org/1999/xlink"><defs><path id="path-1" d="M.683 24.514h21.809V.097H.682v24.417z"/><path id="path-3" d="M19.153 19.895V.097H.15v19.798h19.004z"/><path id="path-5" d="M0 .403V21.05h38.426V.403H0z"/></defs><g id="Page-1" stroke="none" stroke-width="1" fill="none" fill-rule="evenodd"><g id="desktop" transform="translate(-152 -164)"><g id="Page-1" transform="translate(152 164)"><path d="M80.258 11.567v-5.94h3.254c2.582 0 3.871.967 3.871 2.948 0 1.98-1.29 2.992-3.826 2.992h-3.3zm-5.12-10.34v19.798h5.12v-5.412h3.744c6.275 0 8.812-2.859 8.812-6.863 0-4.268-2.849-7.524-9.214-7.524h-8.462z" id="Fill-1" fill="#80BA27"/><path d="M100.184 9.278h9.836c.045-2.464-1.736-4.313-4.585-4.313-2.892 0-4.672 1.454-5.251 4.313zm13.307 9.767c-1.956 1.628-4.494 2.464-7.655 2.464-3.25 0-5.83-.967-7.833-2.86-1.96-1.891-2.938-4.4-2.938-7.522 0-2.949.979-5.412 2.894-7.393 1.914-1.98 4.494-2.991 7.699-2.991 2.626 0 4.896.88 6.72 2.596 1.825 1.716 2.76 3.916 2.76 6.6 0 1.1-.09 2.023-.311 2.728H100.36c.402 2.946 2.804 4.618 6.01 4.618 2.269 0 4.139-.615 5.652-1.804l1.468 3.564z" id="Fill-3" fill="#80BA27"/><g id="Group-7" transform="translate(117.234 1.13)"><mask id="mask-2" fill="#fff"><use xlink:href="#path-1"/></mask><path id="Fill-5" fill="#FEFEFE" mask="url(#mask-2)" d="M.683 19.895V.097h5.119v15.09h8.234V.097h5.118v15.09h3.338v9.328h-4.807v-4.62z"/></g><path id="Fill-8" fill="#FEFEFE" d="M147.484 21.025h-5.119V1.227h5.12v12.538l9.346-12.538h5.118v19.798h-5.118V8.485z"/><path d="M184.255 1.226l-7.699 9.416 8.634 10.382h-6.677l-7.922-9.986 7.21-9.812h6.454zm-18.96 19.798h5.12V1.226h-5.12v19.798z" id="Fill-10" fill="#FEFEFE"/><path d="M201.523 21.025V6.286h-5.296l-.134 2.111c-1.158 10.825-3.472 12.98-9.035 13.024l-.446-4.929c.668.046 1.247-.13 1.826-.527 1.2-.88 2.403-3.826 2.714-8.578l.312-6.16h15.177v19.798h-5.118z" id="Fill-12" fill="#FEFEFE"/><path d="M214.3 9.278h9.836c.044-2.464-1.736-4.313-4.585-4.313-2.892 0-4.672 1.454-5.251 4.313zm13.308 9.767c-1.958 1.628-4.495 2.464-7.656 2.464-3.25 0-5.83-.967-7.833-2.86-1.958-1.891-2.937-4.4-2.937-7.522 0-2.949.979-5.412 2.893-7.393 1.913-1.98 4.494-2.991 7.698-2.991 2.627 0 4.898.88 6.722 2.596 1.825 1.716 2.759 3.916 2.759 6.6 0 1.1-.089 2.023-.312 2.728h-14.465c.402 2.946 2.804 4.618 6.009 4.618 2.27 0 4.139-.615 5.653-1.804l1.47 3.564z" id="Fill-14" fill="#FEFEFE"/><g id="Group-18" transform="translate(231.461 1.13)"><mask id="mask-4" fill="#fff"><use xlink:href="#path-3"/></mask><path id="Fill-16" fill="#FEFEFE" mask="url(#mask-4)" d="M14.036 19.895v-7.567H5.267v7.567H.15V.097h5.118v7.479h8.769V.096h5.118v19.799z"/></g><g id="Group-21" transform="translate(0 .387)"><mask id="mask-6" fill="#fff"><use xlink:href="#path-5"/></mask><path d="M34.396 12.681l-.515.629-.029.041a4.44 4.44 0 0 1-3.559 1.763 4.448 4.448 0 0 1-3.226-1.37L18.83 4.526l-.703-.785-.056-.06-.02-.028-.01-.007A10.506 10.506 0 0 0 10.444.403C4.672.41.003 5.028 0 10.727c.003 5.703 4.672 10.32 10.443 10.323 3.3 0 6.257-1.523 8.16-3.888l-4.031-4.513-.536.66-.034.042a4.434 4.434 0 0 1-3.559 1.763c-2.45-.004-4.434-1.968-4.44-4.387.006-2.42 1.99-4.386 4.44-4.386 1.275 0 2.395.512 3.214 1.36l.674.755 8.287 9.27.046.049.02.022.012.01a10.477 10.477 0 0 0 7.597 3.243h.003c3.283 0 6.228-1.512 8.13-3.855l-4.03-4.514z" id="Fill-19" fill="#80BA27" mask="url(#mask-6)"/></g><path d="M26.134 9.16l.513-.63.028-.04a4.448 4.448 0 0 1 3.56-1.762 4.43 4.43 0 0 1 3.224 1.37l8.242 9.217.702.79.055.057.022.022.01.01a10.47 10.47 0 0 0 7.597 3.243c5.77-.003 10.44-4.618 10.443-10.323C60.527 5.414 55.856.796 50.087.792a10.484 10.484 0 0 0-8.163 3.89l4.033 4.513.54-.665.03-.04a4.452 4.452 0 0 1 3.56-1.762c2.45 0 4.434 1.966 4.439 4.386-.005 2.424-1.989 4.383-4.44 4.387a4.435 4.435 0 0 1-3.215-1.36l-.675-.755-8.283-9.27-.046-.047-.024-.023-.012-.012A10.477 10.477 0 0 0 30.235.792c-3.282 0-6.23 1.514-8.133 3.857l4.032 4.512z" id="Fill-22" fill="#FEFEFE"/></g></g></g></svg>